<svg xmlns="http://www.w3.org/2000/svg" width="80" height="28.005" viewBox="0 0 80 28.005"><title>cxone-white</title><g id="53cdb851-c38c-4652-9c5e-81613da329c3" data-name="Layer 2"><g id="2446519c-e7b0-463e-8495-62de593a9f08" data-name="Layer 1"><path d="M45.982,11.688c-3.371,0-5.725,2.621-5.725,6.375s2.354,6.375,5.725,6.375c3.424,0,5.725-2.562,5.725-6.375S49.406,11.688,45.982,11.688Zm0,11.813c-3.2,0-4.651-2.819-4.651-5.438,0-3.2,1.913-5.438,4.651-5.438s4.651,2.236,4.651,5.438S48.72,23.5,45.982,23.5ZM61.73,13.171a4.189,4.189,0,0,0-3.6-1.483,4.686,4.686,0,0,0-4.364,2.623V11.968H52.688V24.157h1.074V17.595c0-3.019,1.7-4.97,4.34-4.97,2.261,0,3.408,1.255,3.408,3.73v7.8h1.074V16.449a5.334,5.334,0,0,0-.853-3.277Zm12.831,4.611a6.257,6.257,0,0,0-1.673-4.666h0a5.242,5.242,0,0,0-3.716-1.428,5.061,5.061,0,0,0-3.789,1.475,7.031,7.031,0,0,0-1.817,4.993,6.822,6.822,0,0,0,1.211,4.259,5.133,5.133,0,0,0,4.3,2.022,5,5,0,0,0,5.389-4.419l.017-.1H73.406l-.013.066A4.151,4.151,0,0,1,69.075,23.5,4.014,4.014,0,0,1,65.7,21.85a5.985,5.985,0,0,1-1.059-3.587h9.921Zm-5.39-5.157A4.086,4.086,0,0,1,72.1,13.863a5.128,5.128,0,0,1,1.384,3.462H64.645a5.974,5.974,0,0,1,1.406-3.346A4.049,4.049,0,0,1,69.171,12.625ZM20.713,18.7H17.651l-.046.042c-.278,4.014-2.883,6.608-6.635,6.608-4.9,0-7.818-3.582-7.818-9.583A10.687,10.687,0,0,1,5.109,9.146,7.038,7.038,0,0,1,10.9,6.462c3.386,0,5.814,1.825,6.5,4.883l.045.036H20.5l.045-.052c-.685-4.639-4.356-7.52-9.579-7.52a10.168,10.168,0,0,0-8.037,3.41A13.187,13.187,0,0,0,0,15.976c0,3.7.937,6.565,2.864,8.758a9.9,9.9,0,0,0,7.828,3.272,9.969,9.969,0,0,0,6.946-2.384,10.407,10.407,0,0,0,3.12-6.87Zm11.12-2.933L39.4,4.572,39.363,4.5h-3.41l-.038.02-5.946,8.947L24.231,4.521,24.192,4.5H20.5l-.038.071,7.568,11.2L19.98,27.518l.038.072H23.5l.038-.02L29.9,18.136l6.156,9.433.038.021H39.85l.038-.072ZM71.552,8.45A9.592,9.592,0,0,0,56.98,3.1a7.711,7.711,0,0,0-6.2-3.1,7.8,7.8,0,0,0-7.459,5.632A7.77,7.77,0,0,0,36.5,12.176a.626.626,0,1,0,1.238.187,6.513,6.513,0,0,1,6.113-5.516.626.626,0,0,0,.582-.491,6.539,6.539,0,0,1,6.351-5.1A6.474,6.474,0,0,1,56.3,4.311a.626.626,0,0,0,.915.162,8.338,8.338,0,0,1,13.233,4.7.626.626,0,0,0,.565.483,8.34,8.34,0,0,1-.6,16.658H40.435a.62.62,0,0,0-.158.023l.843,1.23H70.406A9.592,9.592,0,0,0,71.552,8.45Z" fill="#fff"/></g></g></svg>